HIERARCHY
ROOT Hips
{
	OFFSET 0.000000 0.000000 0.000000 
	CHANNELS 6 Xposition Yposition Zposition Zrotation Yrotation Xrotation
	JOINT LeftUpLeg
	{
		OFFSET 1.363060 -1.794630 0.839290 
		CHANNELS 3 Zrotation Yrotation Xrotation
		JOINT LeftLeg
		{
			OFFSET 2.448110 -6.726130 0.000000 
			CHANNELS 3 Zrotation Yrotation Xrotation
			JOINT LeftFoot
			{
				OFFSET 2.562200 -7.039590 0.000000 
				CHANNELS 3 Zrotation Yrotation Xrotation
				JOINT LeftToeBase
				{
					OFFSET 0.157640 -0.433110 2.322550 
					CHANNELS 3 Zrotation Yrotation Xrotation
					End Site
					{
						OFFSET 0.000000 0.000000 0.000000 
					}
				}
			}
		}
	}
	JOINT RightUpLeg
	{
		OFFSET -1.305520 -1.794630 0.839290 
		CHANNELS 3 Zrotation Yrotation Xrotation
		JOINT RightLeg
		{
			OFFSET -2.542530 -6.985550 0.000000 
			CHANNELS 3 Zrotation Yrotation Xrotation
			JOINT RightFoot
			{
				OFFSET -2.568260 -7.056230 0.000000 
				CHANNELS 3 Zrotation Yrotation Xrotation
				JOINT RightToeBase
				{
					OFFSET -0.164730 -0.452590 2.363150 
					CHANNELS 3 Zrotation Yrotation Xrotation
					End Site
					{
						OFFSET 0.000000 0.000000 0.000000 
					}
				}
			}
		}
	}
	JOINT Spine
	{
		OFFSET 0.028270 2.035590 -0.193380 
		CHANNELS 3 Zrotation Yrotation Xrotation
		JOINT Spine1
		{
			OFFSET 0.056720 2.048850 -0.042750 
			CHANNELS 3 Zrotation Yrotation Xrotation
			JOINT Neck1
			{
				OFFSET -0.054170 1.746240 0.172020 
				CHANNELS 3 Zrotation Yrotation Xrotation
				JOINT Head
				{
					OFFSET 0.104070 1.761360 -0.123970 
					CHANNELS 3 Zrotation Yrotation Xrotation
					End Site
					{
						OFFSET 0.000000 0.000000 0.000000 
					}
				}
			}
			JOINT LeftArm
			{
				OFFSET 3.362410 1.200890 -0.311210 
				CHANNELS 3 Zrotation Yrotation Xrotation
				JOINT LeftForeArm
				{
					OFFSET 4.983000 -0.000000 -0.000000 
					CHANNELS 3 Zrotation Yrotation Xrotation
					JOINT LeftHand
					{
						OFFSET 3.483560 -0.000000 -0.000000 
						CHANNELS 3 Zrotation Yrotation Xrotation
						JOINT LeftHandIndex1
						{
							OFFSET 0.715260 -0.000000 -0.000000 
							CHANNELS 3 Zrotation Yrotation Xrotation
							End Site
							{
								OFFSET 0.000000 0.000000 0.000000 
							}
						}
					}
				}
			}
			JOINT RightArm
			{
				OFFSET -3.136600 1.374050 -0.404650 
				CHANNELS 3 Zrotation Yrotation Xrotation
				JOINT RightForeArm
				{
					OFFSET -5.241900 -0.000000 -0.000000 
					CHANNELS 3 Zrotation Yrotation Xrotation
					JOINT RightHand
					{
						OFFSET -3.444170 -0.000000 -0.000000 
						CHANNELS 3 Zrotation Yrotation Xrotation
						JOINT RightHandIndex1
						{
							OFFSET -0.622530 -0.000000 -0.000000 
							CHANNELS 3 Zrotation Yrotation Xrotation
							End Site
							{
								OFFSET 0.000000 0.000000 0.000000 
							}
						}
					}
				}
			}
		}
	}
}
MOTION
Frames: 15
Frame Time: 0.041667
49.851297 17.175062 -8.717104 -8.510568 -75.223112 8.631851 -14.230420 -0.749450 -12.320347 1.317938 8.964652 26.218410 0.468638 -3.033426 -4.324666 0.904100 -6.059300 -16.956700 34.392895 -8.969815 -8.180881 -2.862103 -9.626104 28.860130 -1.803344 -1.571537 -26.007103 -1.439800 -7.586100 21.463900 0.426928 1.219923 -1.229576 -1.337968 0.481990 6.542768 8.289678 -8.517842 5.058451 4.012900 -3.837200 3.868600 -77.454524 1.582815 16.677958 12.217088 -20.218995 -3.214165 -1.161956 -0.867883 -11.259725 -7.125000 0.000000 0.000000 73.594041 0.149970 16.935114 -12.782426 22.973770 -3.490395 0.505531 -0.753307 -3.158421 7.125000 0.000000 0.000000 
49.852842 17.168673 -8.728026 -8.783035 -75.204532 8.803273 -14.152111 -0.568062 -12.551088 1.415616 9.138487 26.740938 0.496511 -3.141961 -4.759770 1.004200 -6.376600 -17.881000 34.486960 -9.060622 -8.150530 -2.868869 -9.641887 28.910904 -1.803725 -1.544301 -25.990267 -1.426100 -7.551300 21.359300 0.434496 1.229586 -1.222463 -1.332800 0.488889 6.516944 8.284135 -8.524802 5.074125 4.008300 -3.842900 3.864800 -77.475969 1.782822 16.954388 12.356596 -20.404082 -3.269429 -1.158811 -0.892508 -11.684463 -7.125000 0.000000 0.000000 73.577995 0.135548 16.893614 -12.748332 22.932909 -3.477561 0.505822 -0.752364 -3.089483 7.125000 0.000000 0.000000 
49.857376 17.164758 -8.737506 -8.864505 -75.173871 8.850232 -14.143139 -0.421449 -12.880401 1.521712 9.333961 27.312795 0.511510 -3.129747 -5.163686 1.119100 -6.720200 -18.889100 34.538558 -9.114425 -8.174495 -2.873953 -9.653330 28.945882 -1.807201 -1.514232 -25.993875 -1.430100 -7.561500 21.389900 0.440899 1.241554 -1.217651 -1.322392 0.495664 6.504168 8.287556 -8.528008 5.099387 3.999000 -3.847800 3.844800 -77.576803 1.811829 16.751900 12.308381 -20.345747 -3.250358 -1.157237 -0.878565 -11.447402 -7.125000 0.000000 0.000000 73.551259 0.107777 16.839238 -12.707564 22.885376 -3.463167 0.506365 -0.751423 -3.078687 7.125000 0.000000 0.000000 
49.857582 17.161461 -8.744204 -8.989276 -75.189990 8.894032 -14.158046 -0.232297 -13.094663 1.633846 9.524953 27.894172 0.517980 -3.055893 -5.514099 1.183900 -6.905300 -19.435000 34.575450 -9.165836 -8.121128 -2.878929 -9.661911 28.977846 -1.807168 -1.517958 -25.994449 -1.416600 -7.527300 21.287200 0.449399 1.230384 -1.203070 -1.301753 0.489362 6.553737 8.295750 -8.504639 5.147087 3.999900 -3.835300 3.873100 -77.661945 1.771168 16.595049 12.239811 -20.260559 -3.224959 -1.160290 -0.869632 -11.302617 -7.125000 0.000000 0.000000 73.494473 0.204741 16.769542 -12.621966 22.781352 -3.433112 0.506486 -0.752960 -2.981648 7.125000 0.000000 0.000000 
49.858715 17.157545 -8.751829 -9.146289 -75.193874 8.975086 -14.152910 -0.053276 -13.341881 1.749661 9.721407 28.492270 0.531147 -3.044036 -5.853499 1.265700 -7.131200 -20.104700 34.634433 -9.196846 -8.070782 -2.882905 -9.669704 29.005898 -1.808773 -1.531483 -26.013657 -1.406800 -7.502400 21.212700 0.457366 1.229593 -1.191441 -1.285458 0.489025 6.582572 8.304494 -8.494628 5.192102 3.999500 -3.830600 3.891100 -77.743954 1.766166 16.432744 12.183455 -20.191524 -3.203730 -1.160579 -0.861954 -11.139197 -7.125000 0.000000 0.000000 73.454870 0.259627 16.693473 -12.551746 22.696392 -3.408714 0.506905 -0.753790 -2.905861 7.125000 0.000000 0.000000 
49.859334 17.154042 -8.758526 -9.297600 -75.209560 9.050799 -14.161116 0.128975 -13.584291 1.871466 9.924054 29.114893 0.545403 -3.061779 -6.142891 1.340200 -7.329900 -20.696400 34.690410 -9.204648 -8.004420 -2.885739 -9.674790 29.026029 -1.810162 -1.560587 -26.041402 -1.396400 -7.475700 21.132500 0.464393 1.230038 -1.179960 -1.273232 0.489214 6.615048 8.313867 -8.482779 5.242540 3.999200 -3.824900 3.912200 -77.821708 1.749741 16.250085 12.106373 -20.097056 -3.174647 -1.161240 -0.852776 -10.932725 -7.125000 0.000000 0.000000 73.420518 0.310420 16.615474 -12.486569 22.617953 -3.386455 0.507488 -0.754629 -2.832514 7.125000 0.000000 0.000000 
49.859437 17.150847 -8.764194 -9.444331 -75.240178 9.120351 -14.182180 0.315257 -13.806979 1.994666 10.124930 29.739504 0.563375 -3.143332 -6.365062 1.405300 -7.498500 -21.200900 34.741397 -9.189790 -7.926237 -2.889133 -9.680242 29.048352 -1.812333 -1.591975 -26.076721 -1.387800 -7.453600 21.066300 0.469558 1.233842 -1.169756 -1.270443 0.491505 6.643253 8.320621 -8.469858 5.297734 3.997000 -3.818900 3.935600 -77.882347 1.742882 16.103992 12.023406 -19.997525 -3.143897 -1.162302 -0.845949 -10.748984 -7.125000 0.000000 0.000000 73.397794 0.352312 16.527316 -12.424664 22.543879 -3.365656 0.507939 -0.755550 -2.753226 7.125000 0.000000 0.000000 
49.859231 17.147859 -8.768727 -9.577725 -75.285496 9.179053 -14.218874 0.500596 -14.015052 2.118528 10.323774 30.364206 0.586752 -3.309492 -6.517352 1.466700 -7.653600 -21.666900 34.784928 -9.152466 -7.841293 -2.892868 -9.686002 29.071671 -1.815367 -1.620236 -26.115054 -1.383000 -7.441300 21.029600 0.472405 1.243192 -1.161963 -1.279256 0.497332 6.661151 8.321799 -8.455294 5.354594 3.990400 -3.812800 3.955900 -77.925988 1.760484 16.012968 11.943368 -19.904410 -3.114371 -1.163318 -0.841689 -10.603665 -7.125000 0.000000 0.000000 73.389196 0.367561 16.442681 -12.376850 22.487869 -3.350045 0.508328 -0.756062 -2.688222 7.125000 0.000000 0.000000 
49.858819 17.145283 -8.772025 -9.686134 -75.348510 9.217163 -14.275086 0.679523 -14.201137 2.240401 10.517109 30.977391 0.616817 -3.580510 -6.596155 1.517900 -7.780000 -22.047800 34.815949 -9.095524 -7.753331 -2.897294 -9.692450 29.098004 -1.818522 -1.644858 -26.151980 -1.380600 -7.435000 21.010600 0.473339 1.256089 -1.156049 -1.296153 0.505182 6.674081 8.316653 -8.436538 5.416144 3.979000 -3.805000 3.977100 -77.956743 1.788098 15.957360 11.858080 -19.806986 -3.083160 -1.164639 -0.838360 -10.482863 -7.125000 0.000000 0.000000 73.389743 0.370447 16.356903 -12.335359 22.439839 -3.336578 0.508310 -0.756435 -2.629761 7.125000 0.000000 0.000000 
49.858097 17.142810 -8.774188 -9.775821 -75.429889 9.240978 -14.349508 0.849484 -14.361801 2.358213 10.701233 31.567296 0.650679 -3.932247 -6.607856 1.562500 -7.888200 -22.375100 34.834739 -9.022533 -7.665261 -2.902504 -9.700275 29.128677 -1.821968 -1.658053 -26.182974 -1.382000 -7.438800 21.022000 0.472765 1.271324 -1.152113 -1.319206 0.514415 6.680823 8.305215 -8.413154 5.477335 3.964100 -3.795300 3.997100 -77.977942 1.837015 15.959777 11.781754 -19.722738 -3.055425 -1.166133 -0.837610 -10.417336 -7.125000 0.000000 0.000000 73.394582 0.351829 16.291230 -12.310216 22.412253 -3.328791 0.508291 -0.756369 -2.594676 7.125000 0.000000 0.000000 
49.856758 17.140750 -8.775219 -9.855764 -75.530472 9.258667 -14.438844 1.013934 -14.494555 2.469412 10.872571 32.122336 0.686353 -4.348341 -6.553562 1.599400 -7.976400 -22.642500 34.846372 -8.926717 -7.572940 -2.908760 -9.709519 29.164035 -1.825951 -1.672505 -26.218196 -1.384400 -7.444800 21.040000 0.472359 1.286178 -1.148631 -1.338942 0.523191 6.694044 8.288599 -8.384140 5.546967 3.945600 -3.782700 4.026000 -78.005813 1.879066 15.939637 11.697609 -19.628000 -3.024923 -1.167694 -0.835490 -10.335742 -7.125000 0.000000 0.000000 73.393735 0.339301 16.232757 -12.285525 22.384640 -3.320822 0.508215 -0.756256 -2.567508 7.125000 0.000000 0.000000 
49.855006 17.138792 -8.775425 -9.933652 -75.645865 9.277453 -14.538926 1.169570 -14.594882 2.571908 11.027969 32.631480 0.720139 -4.795000 -6.436226 1.628800 -8.045800 -22.853300 34.854112 -8.813672 -7.477275 -2.915829 -9.720073 29.203722 -1.829008 -1.696202 -26.254368 -1.383700 -7.443000 21.034500 0.473161 1.297256 -1.145161 -1.350158 0.529381 6.715123 8.268540 -8.348445 5.622612 3.925900 -3.766400 4.063200 -78.044457 1.911029 15.896781 11.609135 -19.526841 -2.993202 -1.169913 -0.832465 -10.244833 -7.125000 0.000000 0.000000 73.381984 0.326777 16.201261 -12.272938 22.371125 -3.316803 0.508693 -0.755520 -2.567386 7.125000 0.000000 0.000000 
49.852636 17.136937 -8.774704 -10.012635 -75.775568 9.301189 -14.648026 1.315067 -14.661406 2.662845 11.163894 33.083000 0.748684 -5.242999 -6.248704 1.652100 -8.100500 -23.019700 34.858468 -8.686749 -7.380256 -2.923540 -9.731721 29.246332 -1.832469 -1.719529 -26.292640 -1.382700 -7.440400 21.026800 0.475243 1.305573 -1.141799 -1.352692 0.533606 6.743288 8.244511 -8.310223 5.701320 3.904200 -3.748500 4.106300 -78.096285 1.932298 15.817750 11.514045 -19.415948 -2.959453 -1.172442 -0.828527 -10.132294 -7.125000 0.000000 0.000000 73.359103 0.320902 16.179919 -12.262971 22.359700 -3.313308 0.509143 -0.754571 -2.579588 7.125000 0.000000 0.000000 
49.849751 17.135185 -8.772952 -10.093690 -75.918153 9.332074 -14.765096 1.448842 -14.692863 2.739455 11.277136 33.465056 0.769658 -5.671108 -5.975705 1.667700 -8.136600 -23.129600 34.858213 -8.555008 -7.284900 -2.931252 -9.743399 29.289220 -1.835132 -1.741499 -26.324406 -1.379300 -7.431700 21.000700 0.477906 1.312109 -1.139555 -1.350819 0.536644 6.770413 8.219159 -8.268685 5.779983 3.883100 -3.729300 4.149100 -78.156343 1.962078 15.726430 11.422200 -19.309112 -2.927372 -1.175160 -0.824849 -10.026424 -7.125000 0.000000 0.000000 73.331791 0.301532 16.180055 -12.265950 22.364135 -3.314004 0.509732 -0.753046 -2.612375 7.125000 0.000000 0.000000 
49.846145 17.133640 -8.770376 -10.178632 -76.074430 9.370322 -14.887920 1.565929 -14.681228 2.798424 11.364002 33.765727 0.781876 -6.071215 -5.599831 1.656400 -8.110400 -23.049900 34.852058 -8.422119 -7.187897 -2.938445 -9.754003 29.328592 -1.837698 -1.753817 -26.348969 -1.376200 -7.423800 20.977100 0.480303 1.319622 -1.139207 -1.349030 0.540212 6.791686 8.194106 -8.224057 5.859882 3.863700 -3.709000 4.190800 -78.218549 2.001410 15.622973 11.327696 -19.199532 -2.895074 -1.178541 -0.821938 -9.923835 -7.125000 0.000000 0.000000 73.306808 0.272883 16.178155 -12.268789 22.368937 -3.314788 0.510246 -0.751522 -2.644551 7.125000 0.000000 0.000000 
